<?xml version="1.0" standalone="no"?><!DOCTYPE svg PUBLIC "-//W3C//DTD SVG 1.1//EN" "http://www.w3.org/Graphics/SVG/1.1/DTD/svg11.dtd"><svg t="1671715813793" class="icon" viewBox="0 0 1024 1024" version="1.1" xmlns="http://www.w3.org/2000/svg" p-id="7857" xmlns:xlink="http://www.w3.org/1999/xlink" width="200" height="200"><path d="M894.259 878.917l-3.806 55.87c-1.028 15.098-13.945 26.112-29.058 25.082l-82.096-5.592c-15.113-1.029-26.532-14.102-25.503-29.201l1.877-27.536-383.112-26.097-1.876 27.536c-1.029 15.098-14.113 26.502-29.228 25.472l-82.095-5.592c-15.114-1.03-26.416-13.693-25.388-28.791l3.806-55.87c-31.46-28.285-50.253-71.569-47.074-118.23l2.915-42.788c3.178-46.655 27.647-86.595 62.645-110.353l0.068-0.998c30.634-163.838 149.732-182.246 149.732-182.246l383.112 26.097s115.501 34.388 123.635 200.867l-0.068 0.998c31.453 28.284 50.279 71.174 47.101 117.829l-2.915 42.788c-3.179 46.663-27.667 86.998-62.672 110.755zM454.472 780.79l232.339 15.826c11.322 0.771 21.124-7.755 21.893-19.044 0.769-11.289-7.786-21.065-19.108-21.837L457.257 739.91c-11.322-0.771-21.124 7.755-21.893 19.044-0.769 11.288 7.786 21.065 19.108 21.836z m4.621-67.843l232.339 15.827c11.322 0.771 21.124-7.755 21.893-19.044 0.769-11.289-7.786-21.065-19.108-21.836l-232.339-15.826c-11.322-0.771-21.124 7.755-21.893 19.044-0.769 11.287 7.786 21.064 19.108 21.835z m-212.975-0.965c-2.571 37.745 25.939 70.427 63.679 72.998 37.741 2.571 70.42-25.943 72.991-63.688 2.571-37.743-25.94-70.425-63.681-72.996-37.739-2.571-70.418 25.943-72.989 63.686z m526.419-253.308l-356.175-24.262s-83.094 9.075-105.157 131.157l546.733 37.242c-5.303-123.946-85.401-144.137-85.401-144.137z m66.354 225.028c-37.74-2.571-70.419 25.943-72.99 63.686-2.571 37.745 25.939 70.427 63.679 72.998s70.419-25.943 72.99-63.688c2.571-37.743-25.94-70.425-63.679-72.996zM746 390l198-86-16 74-182 12z m70-326l96 64-176 240 80-304zM581 242H253s-75.41 12.826-88 126h187s-70.533 11-117.713 115.079c-9.419-22.928-31.959-39.08-58.281-39.08-34.79 0-62.993 28.206-62.993 62.999 0 34.795 28.203 63.001 62.993 63.001 9.722 0 18.927-2.206 27.148-6.139-6.672 3.468-50.654 34.639-55.456 131.139h-8.162C125.629 694.999 114 683.89 114 670v-52c-30.577-23.94-50-61.589-50-104.518v-39.365c0-42.923 19.43-81.177 50-105.116v-1c17.835-151.947 126-176 126-176h353s108.165 24.053 126 176h-51C655.41 254.826 581 242 581 242z" p-id="7858"></path></svg>